<svg width="94" height="24" viewBox="0 0 94 24" fill="none" xmlns="http://www.w3.org/2000/svg">
<path d="M4.82797 5.33V7.55H0.867969V4.67C0.867969 3.49 1.20797 2.49 1.88797 1.67C2.56797 0.829999 3.64797 0.409999 5.12797 0.409999H5.96797C8.88797 0.409999 10.348 1.84 10.348 4.7V7.19C10.348 8.93 9.86797 10.06 8.90797 10.58C10.008 10.94 10.558 11.79 10.558 13.13V18.71C10.558 20.17 10.168 21.31 9.38797 22.13C8.62797 22.93 7.53797 23.33 6.11797 23.33H5.27797C3.71797 23.33 2.58797 22.95 1.88797 22.19C1.18797 21.43 0.837969 20.47 0.837969 19.31V14.81H4.82797V18.35C4.82797 19.05 5.10797 19.4 5.66797 19.4C6.20797 19.4 6.47797 19.05 6.47797 18.35V14C6.47797 13.66 6.42797 13.43 6.32797 13.31C6.24797 13.17 6.04797 13.1 5.72797 13.1H3.65797V9.11H5.51797C5.85797 9.11 6.07797 9.04 6.17797 8.9C6.29797 8.76 6.35797 8.5 6.35797 8.12V5.33C6.35797 4.93 6.29797 4.66 6.17797 4.52C6.07797 4.38 5.87797 4.31 5.57797 4.31C5.31797 4.31 5.12797 4.38 5.00797 4.52C4.88797 4.66 4.82797 4.93 4.82797 5.33ZM17.4784 23L17.0584 19.25H14.6584L14.2984 23H10.7584L13.5784 0.679999H18.3184L21.3484 23H17.4784ZM15.8284 7.76L15.0484 15.41H16.6684L15.8284 7.76ZM21.7302 23V0.679999H29.9802V4.61H25.7202V23H21.7302ZM36.7229 14.06H34.8329V23H30.8429V0.679999H36.5129C38.1129 0.679999 39.1929 1.04 39.7529 1.76C40.3329 2.48 40.6229 3.59 40.6229 5.09V9.56C40.6229 12.56 39.3229 14.06 36.7229 14.06ZM34.8329 4.13V10.43H35.5829C36.0029 10.43 36.2729 10.33 36.3929 10.13C36.5329 9.91 36.6029 9.59 36.6029 9.17V5.45C36.6029 4.99 36.5329 4.66 36.3929 4.46C36.2729 4.24 36.0029 4.13 35.5829 4.13H34.8329ZM51.0455 0.679999L47.3555 20.57C47.0355 22.19 46.2955 23 45.1355 23H41.8055V19.43H43.0955C43.3355 19.43 43.4855 19.38 43.5455 19.28C43.6255 19.16 43.6955 18.94 43.7555 18.62L43.8155 17.99C43.8555 17.65 43.8455 17.35 43.7855 17.09L40.6955 0.679999H44.6855L46.0055 9.95L47.2955 0.679999H51.0455ZM55.2186 5.33V7.55H51.2586V4.67C51.2586 3.49 51.5986 2.49 52.2786 1.67C52.9586 0.829999 54.0386 0.409999 55.5186 0.409999H56.3586C59.2786 0.409999 60.7386 1.84 60.7386 4.7V7.19C60.7386 8.93 60.2586 10.06 59.2986 10.58C60.3986 10.94 60.9486 11.79 60.9486 13.13V18.71C60.9486 20.17 60.5586 21.31 59.7786 22.13C59.0186 22.93 57.9286 23.33 56.5086 23.33H55.6686C54.1086 23.33 52.9786 22.95 52.2786 22.19C51.5786 21.43 51.2286 20.47 51.2286 19.31V14.81H55.2186V18.35C55.2186 19.05 55.4986 19.4 56.0586 19.4C56.5986 19.4 56.8686 19.05 56.8686 18.35V14C56.8686 13.66 56.8186 13.43 56.7186 13.31C56.6386 13.17 56.4386 13.1 56.1186 13.1H54.0486V9.11H55.9086C56.2486 9.11 56.4686 9.04 56.5686 8.9C56.6886 8.76 56.7486 8.5 56.7486 8.12V5.33C56.7486 4.93 56.6886 4.66 56.5686 4.52C56.4686 4.38 56.2686 4.31 55.9686 4.31C55.7086 4.31 55.5186 4.38 55.3986 4.52C55.2786 4.66 55.2186 4.93 55.2186 5.33ZM68.3469 23V11.15L65.7669 23H61.8669V0.679999H65.7669V12.62L68.3469 0.679999H72.2469V23H68.3469ZM73.0505 0.679999H82.7405V4.61H79.8905V23H75.9005V4.61H73.0505V0.679999ZM87.4194 8.72H89.3094C91.9094 8.72 93.2094 10.22 93.2094 13.22V18.62C93.2094 20.12 92.9194 21.23 92.3394 21.95C91.7794 22.65 90.6994 23 89.0994 23H83.4294V0.679999H87.4194V8.72ZM87.4194 19.55H88.1694C88.5894 19.55 88.8594 19.45 88.9794 19.25C89.1194 19.03 89.1894 18.7 89.1894 18.26V13.61C89.1894 13.19 89.1194 12.88 88.9794 12.68C88.8594 12.46 88.5894 12.35 88.1694 12.35H87.4194V19.55Z" fill="#009788"/>
</svg>
