<svg width="175" height="36" viewBox="0 0 175 36" fill="none" xmlns="http://www.w3.org/2000/svg">
<path d="M0.76 31V1.24H13.8V31H8.48V6.48H6.08V31H0.76ZM29.2503 8.44V24.2C29.2503 26.4133 28.6903 28.1733 27.5703 29.48C26.4503 30.7867 24.9036 31.44 22.9303 31.44H21.7303C19.6236 31.44 18.0236 30.8267 16.9303 29.6C15.837 28.3467 15.2903 26.5467 15.2903 24.2V8.48C15.2903 3.41333 17.4236 0.879999 21.6903 0.879999H22.8903C27.1303 0.879999 29.2503 3.4 29.2503 8.44ZM23.6903 24.36V8.04C23.6903 6.73333 23.2236 6.08 22.2903 6.08C21.3303 6.08 20.8503 6.73333 20.8503 8.04V24.36C20.8503 25.5333 21.3436 26.12 22.3303 26.12C23.237 26.12 23.6903 25.5333 23.6903 24.36ZM40.2894 35.2V31H34.7294V35.2H29.8094V25.64H30.8094C30.916 25.1333 30.9694 24.8533 30.9694 24.8C31.1027 24.1867 31.1827 23.2267 31.2094 21.92C31.3427 17.8667 31.4094 10.9733 31.4094 1.24H43.8094V25.64H45.2094V35.2H40.2894ZM36.0894 21.56C35.9027 23.5067 35.8094 24.5067 35.8094 24.56L35.6494 25.64H38.6094V6.48H36.2894C36.2894 13.6533 36.2227 18.68 36.0894 21.56ZM60.0706 8.44V24.2C60.0706 26.4133 59.5106 28.1733 58.3906 29.48C57.2706 30.7867 55.724 31.44 53.7506 31.44H52.5506C50.444 31.44 48.844 30.8267 47.7506 29.6C46.6573 28.3467 46.1106 26.5467 46.1106 24.2V8.48C46.1106 3.41333 48.244 0.879999 52.5106 0.879999H53.7106C57.9506 0.879999 60.0706 3.4 60.0706 8.44ZM54.5106 24.36V8.04C54.5106 6.73333 54.044 6.08 53.1106 6.08C52.1506 6.08 51.6706 6.73333 51.6706 8.04V24.36C51.6706 25.5333 52.164 26.12 53.1506 26.12C54.0573 26.12 54.5106 25.5333 54.5106 24.36ZM69.305 19.08H66.785V31H61.465V1.24H69.025C71.1583 1.24 72.5983 1.72 73.345 2.68C74.1183 3.64 74.505 5.12 74.505 7.12V13.08C74.505 17.08 72.7717 19.08 69.305 19.08ZM66.785 5.84V14.24H67.785C68.345 14.24 68.705 14.1067 68.865 13.84C69.0517 13.5467 69.145 13.12 69.145 12.56V7.6C69.145 6.98667 69.0517 6.54667 68.865 6.28C68.705 5.98667 68.345 5.84 67.785 5.84H66.785ZM89.6019 8.44V24.2C89.6019 26.4133 89.0419 28.1733 87.9219 29.48C86.8019 30.7867 85.2552 31.44 83.2819 31.44H82.0819C79.9752 31.44 78.3752 30.8267 77.2819 29.6C76.1885 28.3467 75.6419 26.5467 75.6419 24.2V8.48C75.6419 3.41333 77.7752 0.879999 82.0419 0.879999H83.2419C87.4819 0.879999 89.6019 3.4 89.6019 8.44ZM84.0419 24.36V8.04C84.0419 6.73333 83.5752 6.08 82.6419 6.08C81.6819 6.08 81.2019 6.73333 81.2019 8.04V24.36C81.2019 25.5333 81.6952 26.12 82.6819 26.12C83.5885 26.12 84.0419 25.5333 84.0419 24.36ZM98.1694 31V18.32L94.8494 31H89.2494L93.7694 14.76L89.6894 1.24H94.9294L98.1694 12.72V1.24H103.489V12.72L106.729 1.24H111.969L107.889 14.76L112.409 31H106.809L103.489 18.32V31H98.1694ZM118.191 18.44V31H112.871V1.24H118.191V12.6H120.991V1.24H126.311V31H120.991V18.44H118.191ZM136.392 31V15.2L132.952 31H127.752V1.24H132.952V17.16L136.392 1.24H141.592V31H136.392ZM152.224 31L148.664 18.4V31H143.344V1.24H148.664V12.68L152.144 1.24H157.384L153.184 14.76L157.824 31H152.224ZM166.483 25.64V20.8H162.163V17.16H166.483V12.28H170.403V17.16H174.723V20.8H170.403V25.64H166.483Z" fill="white"/>
</svg>
